<mxfile host="app.diagrams.net" agent="Mozilla/5.0 (Windows NT 10.0; Win64; x64) AppleWebKit/537.36 (KHTML, like Gecko) Chrome/131.0.0.0 Safari/537.36" version="24.9.1">
  <diagram name="Страница — 1" id="0UlXYkejvoN96yMprgUO">
    <mxGraphModel dx="2514" dy="2087" grid="1" gridSize="10" guides="1" tooltips="1" connect="1" arrows="1" fold="1" page="1" pageScale="1" pageWidth="827" pageHeight="1169" math="0" shadow="0">
      <root>
        <mxCell id="0" />
        <mxCell id="1" parent="0" />
        <mxCell id="YheI6cxlKEy2oLV0Misl-1" value="Схема бизнес процессов для компании" style="text;html=1;align=center;verticalAlign=middle;whiteSpace=wrap;rounded=0;" parent="1" vertex="1">
          <mxGeometry x="140" y="-1150" width="510" height="30" as="geometry" />
        </mxCell>
        <mxCell id="YheI6cxlKEy2oLV0Misl-2" value="1) Предположим в компании имеется инструмент подсчета склада (1с или аналог)" style="text;html=1;align=center;verticalAlign=middle;whiteSpace=wrap;rounded=0;" parent="1" vertex="1">
          <mxGeometry x="10" y="-1110" width="470" height="30" as="geometry" />
        </mxCell>
        <mxCell id="YheI6cxlKEy2oLV0Misl-4" value="2) В Jira на первом этапе создаем проекты как основу по каждому отделу (Отдел закупок, Производство, Отдел контроля качества, Логистика, Отдел продаж, Маркетинг)" style="text;html=1;align=center;verticalAlign=middle;whiteSpace=wrap;rounded=0;" parent="1" vertex="1">
          <mxGeometry x="14" y="-1080" width="800" height="30" as="geometry" />
        </mxCell>
        <mxCell id="YheI6cxlKEy2oLV0Misl-5" value="3) Так же настраиваем группы и роли пользователей для каждого проекта с условиями. Т.е. у каждого отдела будет доступ к своему проекту, но у некоторых пользователей из отдела закупок будет доступ к задачам по логистике т.к. они там тоже принимают участие. В остальных случаях где сотрудникам одного отдела - необходимо принимать участия в задачах другого отдела предусмотреть в группах и ролях пользователя при создании." style="text;html=1;align=center;verticalAlign=middle;whiteSpace=wrap;rounded=0;" parent="1" vertex="1">
          <mxGeometry x="10" y="-1030" width="778" height="30" as="geometry" />
        </mxCell>
        <mxCell id="YheI6cxlKEy2oLV0Misl-8" value="1. Бизнес-процесс (Отдел закупок)" style="text;html=1;align=center;verticalAlign=middle;whiteSpace=wrap;rounded=0;fontStyle=1" parent="1" vertex="1">
          <mxGeometry y="-950" width="260" height="30" as="geometry" />
        </mxCell>
        <mxCell id="YheI6cxlKEy2oLV0Misl-9" value="2. Отдел в инструменте подсчета склада отслеживает текущий уровень запасов. Если возникает необходимость закупки новой продукции, то ответственный отдела (или назначенный сотрудник) создает задание в системе Jira на закуп необходимого кол-ва сырья" style="text;html=1;align=center;verticalAlign=middle;whiteSpace=wrap;rounded=0;" parent="1" vertex="1">
          <mxGeometry x="20" y="-920" width="820" height="30" as="geometry" />
        </mxCell>
        <mxCell id="YheI6cxlKEy2oLV0Misl-10" value="3. В проекте (отдел закупок) будет реализованы следующие типы запросов при создании Задачи в Jira" style="text;html=1;align=center;verticalAlign=middle;whiteSpace=wrap;rounded=0;" parent="1" vertex="1">
          <mxGeometry x="10" y="-890" width="630" height="30" as="geometry" />
        </mxCell>
        <mxCell id="YheI6cxlKEy2oLV0Misl-11" value="3.1. Закупка сырья" style="text;html=1;align=center;verticalAlign=middle;whiteSpace=wrap;rounded=0;" parent="1" vertex="1">
          <mxGeometry x="60" y="-860" width="180" height="30" as="geometry" />
        </mxCell>
        <mxCell id="YheI6cxlKEy2oLV0Misl-12" value="3.2. Обновления договоров с поставщиками" style="text;html=1;align=center;verticalAlign=middle;whiteSpace=wrap;rounded=0;" parent="1" vertex="1">
          <mxGeometry x="60" y="-830" width="240" height="30" as="geometry" />
        </mxCell>
        <mxCell id="YheI6cxlKEy2oLV0Misl-13" value="3.3. Проверка качества фруктов" style="text;html=1;align=center;verticalAlign=middle;whiteSpace=wrap;rounded=0;" parent="1" vertex="1">
          <mxGeometry x="70" y="-800" width="250" height="30" as="geometry" />
        </mxCell>
        <mxCell id="YheI6cxlKEy2oLV0Misl-14" value="Закупка сырья (Схема). Для более детального отображения перехода статусов в Jira необходимо понимать как происходит процесс закупки в реальности&amp;nbsp;" style="text;html=1;align=center;verticalAlign=middle;whiteSpace=wrap;rounded=0;" parent="1" vertex="1">
          <mxGeometry x="320" y="-750" width="510" height="30" as="geometry" />
        </mxCell>
        <mxCell id="YheI6cxlKEy2oLV0Misl-18" style="edgeStyle=orthogonalEdgeStyle;rounded=0;orthogonalLoop=1;jettySize=auto;html=1;" parent="1" source="YheI6cxlKEy2oLV0Misl-15" edge="1">
          <mxGeometry relative="1" as="geometry">
            <mxPoint x="520" y="-650" as="targetPoint" />
          </mxGeometry>
        </mxCell>
        <mxCell id="YheI6cxlKEy2oLV0Misl-22" value="В работу" style="edgeLabel;html=1;align=center;verticalAlign=middle;resizable=0;points=[];" parent="YheI6cxlKEy2oLV0Misl-18" vertex="1" connectable="0">
          <mxGeometry x="-0.1602" y="-4" relative="1" as="geometry">
            <mxPoint as="offset" />
          </mxGeometry>
        </mxCell>
        <mxCell id="YheI6cxlKEy2oLV0Misl-15" value="Пользователь указывает всю необходимую информацию в задаче.&amp;nbsp;&lt;div&gt;Какое сырье. Кто поставщик. Кол-во. Сумма(если необходимо). Дата закупки.&lt;/div&gt;&lt;div&gt;(Статус в Jira - Открыто)&lt;/div&gt;" style="rounded=1;whiteSpace=wrap;html=1;" parent="1" vertex="1">
          <mxGeometry x="210" y="-700" width="220" height="100" as="geometry" />
        </mxCell>
        <mxCell id="YheI6cxlKEy2oLV0Misl-17" style="edgeStyle=orthogonalEdgeStyle;rounded=0;orthogonalLoop=1;jettySize=auto;html=1;exitX=0.5;exitY=0;exitDx=0;exitDy=0;entryX=0;entryY=0.5;entryDx=0;entryDy=0;" parent="1" source="YheI6cxlKEy2oLV0Misl-16" target="YheI6cxlKEy2oLV0Misl-15" edge="1">
          <mxGeometry relative="1" as="geometry" />
        </mxCell>
        <mxCell id="YheI6cxlKEy2oLV0Misl-21" value="Создать" style="edgeLabel;html=1;align=center;verticalAlign=middle;resizable=0;points=[];" parent="YheI6cxlKEy2oLV0Misl-17" vertex="1" connectable="0">
          <mxGeometry x="-0.0909" y="1" relative="1" as="geometry">
            <mxPoint as="offset" />
          </mxGeometry>
        </mxCell>
        <mxCell id="YheI6cxlKEy2oLV0Misl-16" value="Создание задачи на закупку сырья" style="text;html=1;align=center;verticalAlign=middle;whiteSpace=wrap;rounded=0;" parent="1" vertex="1">
          <mxGeometry x="20" y="-560" width="180" height="30" as="geometry" />
        </mxCell>
        <mxCell id="YheI6cxlKEy2oLV0Misl-23" style="edgeStyle=orthogonalEdgeStyle;rounded=0;orthogonalLoop=1;jettySize=auto;html=1;" parent="1" source="YheI6cxlKEy2oLV0Misl-19" edge="1">
          <mxGeometry relative="1" as="geometry">
            <mxPoint x="860" y="-650" as="targetPoint" />
          </mxGeometry>
        </mxCell>
        <mxCell id="YheI6cxlKEy2oLV0Misl-24" value="Заказ&amp;nbsp;&lt;div&gt;сформирован&lt;/div&gt;" style="edgeLabel;html=1;align=center;verticalAlign=middle;resizable=0;points=[];" parent="YheI6cxlKEy2oLV0Misl-23" vertex="1" connectable="0">
          <mxGeometry x="-0.2365" y="-5" relative="1" as="geometry">
            <mxPoint as="offset" />
          </mxGeometry>
        </mxCell>
        <mxCell id="YheI6cxlKEy2oLV0Misl-19" value="(Статус - В работе)&lt;div&gt;Ответственный исполнитель - После связи с поставщиком и заказом продукции переводит задачу в статус&amp;nbsp;&amp;nbsp;&lt;/div&gt;" style="rounded=1;whiteSpace=wrap;html=1;" parent="1" vertex="1">
          <mxGeometry x="520" y="-700" width="220" height="100" as="geometry" />
        </mxCell>
        <mxCell id="YheI6cxlKEy2oLV0Misl-26" style="edgeStyle=orthogonalEdgeStyle;rounded=0;orthogonalLoop=1;jettySize=auto;html=1;" parent="1" source="YheI6cxlKEy2oLV0Misl-25" edge="1">
          <mxGeometry relative="1" as="geometry">
            <mxPoint x="985" y="-460" as="targetPoint" />
          </mxGeometry>
        </mxCell>
        <mxCell id="YheI6cxlKEy2oLV0Misl-28" value="Отправил в Бух.&lt;div&gt;на оплату&lt;/div&gt;" style="edgeLabel;html=1;align=center;verticalAlign=middle;resizable=0;points=[];" parent="YheI6cxlKEy2oLV0Misl-26" vertex="1" connectable="0">
          <mxGeometry x="-0.116" y="2" relative="1" as="geometry">
            <mxPoint as="offset" />
          </mxGeometry>
        </mxCell>
        <mxCell id="YheI6cxlKEy2oLV0Misl-25" value="(Статус - Ожидание счета на оплату)&lt;div&gt;Ответственный исполнитель - Ожидает счет от поставщика. После получения счета отправляет его в бухгалтерию на оплату. (Для бухгалтерии так же можно создать учетные записи для отслеживания конкретных статус когда им нужно оплатить)&amp;nbsp;&amp;nbsp;&lt;/div&gt;" style="rounded=1;whiteSpace=wrap;html=1;" parent="1" vertex="1">
          <mxGeometry x="860" y="-700" width="250" height="150" as="geometry" />
        </mxCell>
        <mxCell id="YheI6cxlKEy2oLV0Misl-29" style="edgeStyle=orthogonalEdgeStyle;rounded=0;orthogonalLoop=1;jettySize=auto;html=1;" parent="1" source="YheI6cxlKEy2oLV0Misl-27" edge="1">
          <mxGeometry relative="1" as="geometry">
            <mxPoint x="980" y="-240" as="targetPoint" />
          </mxGeometry>
        </mxCell>
        <mxCell id="YheI6cxlKEy2oLV0Misl-30" value="Счет оплачен&lt;div&gt;и отправлен поставщику&lt;/div&gt;" style="edgeLabel;html=1;align=center;verticalAlign=middle;resizable=0;points=[];" parent="YheI6cxlKEy2oLV0Misl-29" vertex="1" connectable="0">
          <mxGeometry x="-0.2531" relative="1" as="geometry">
            <mxPoint as="offset" />
          </mxGeometry>
        </mxCell>
        <mxCell id="YheI6cxlKEy2oLV0Misl-27" value="(Статус - Ожидание оплаты от Бухгалтерии)&lt;div&gt;Ответственный исполнитель/Бухгалтер подтверждает оплату, прикладывает в задачу информацию об оплате и переводит в статус ожидание продукции&lt;/div&gt;" style="rounded=1;whiteSpace=wrap;html=1;" parent="1" vertex="1">
          <mxGeometry x="870" y="-460" width="220" height="100" as="geometry" />
        </mxCell>
        <mxCell id="YheI6cxlKEy2oLV0Misl-32" style="edgeStyle=orthogonalEdgeStyle;rounded=0;orthogonalLoop=1;jettySize=auto;html=1;" parent="1" source="YheI6cxlKEy2oLV0Misl-31" edge="1">
          <mxGeometry relative="1" as="geometry">
            <mxPoint x="740" y="-190" as="targetPoint" />
          </mxGeometry>
        </mxCell>
        <mxCell id="YheI6cxlKEy2oLV0Misl-35" value="На проверку" style="edgeLabel;html=1;align=center;verticalAlign=middle;resizable=0;points=[];" parent="YheI6cxlKEy2oLV0Misl-32" vertex="1" connectable="0">
          <mxGeometry x="-0.1878" y="-4" relative="1" as="geometry">
            <mxPoint as="offset" />
          </mxGeometry>
        </mxCell>
        <mxCell id="YheI6cxlKEy2oLV0Misl-31" value="(Статус - Ожидание оплаченной продукции)&lt;div&gt;Ответственный исполнитель - ожидает продукцию, после ее получения переводит в статус Проверка продукции&lt;/div&gt;" style="rounded=1;whiteSpace=wrap;html=1;" parent="1" vertex="1">
          <mxGeometry x="870" y="-240" width="220" height="100" as="geometry" />
        </mxCell>
        <mxCell id="YheI6cxlKEy2oLV0Misl-36" style="edgeStyle=orthogonalEdgeStyle;rounded=0;orthogonalLoop=1;jettySize=auto;html=1;" parent="1" source="YheI6cxlKEy2oLV0Misl-33" edge="1">
          <mxGeometry relative="1" as="geometry">
            <mxPoint x="615" y="-350" as="targetPoint" />
          </mxGeometry>
        </mxCell>
        <mxCell id="YheI6cxlKEy2oLV0Misl-38" value="Брак" style="edgeLabel;html=1;align=center;verticalAlign=middle;resizable=0;points=[];" parent="YheI6cxlKEy2oLV0Misl-36" vertex="1" connectable="0">
          <mxGeometry x="0.047" y="-1" relative="1" as="geometry">
            <mxPoint as="offset" />
          </mxGeometry>
        </mxCell>
        <mxCell id="YheI6cxlKEy2oLV0Misl-39" style="edgeStyle=orthogonalEdgeStyle;rounded=0;orthogonalLoop=1;jettySize=auto;html=1;" parent="1" source="YheI6cxlKEy2oLV0Misl-33" edge="1">
          <mxGeometry relative="1" as="geometry">
            <mxPoint x="340" y="-190" as="targetPoint" />
          </mxGeometry>
        </mxCell>
        <mxCell id="YheI6cxlKEy2oLV0Misl-40" value="Проверка&lt;div&gt;пройдена&lt;/div&gt;" style="edgeLabel;html=1;align=center;verticalAlign=middle;resizable=0;points=[];" parent="YheI6cxlKEy2oLV0Misl-39" vertex="1" connectable="0">
          <mxGeometry x="0.1166" y="-3" relative="1" as="geometry">
            <mxPoint as="offset" />
          </mxGeometry>
        </mxCell>
        <mxCell id="YheI6cxlKEy2oLV0Misl-33" value="(Статус - Проверка сырья(продукции))&lt;div&gt;Ответственный исполнитель(назначенное лицо) - производит физическую проверку сырья. В случаи если все нормально отправляет на изначального исполнителя. В случае если есть брак перевести в статус брак (отработать шаблон по браку)&lt;/div&gt;" style="rounded=1;whiteSpace=wrap;html=1;" parent="1" vertex="1">
          <mxGeometry x="490" y="-255" width="250" height="130" as="geometry" />
        </mxCell>
        <mxCell id="YheI6cxlKEy2oLV0Misl-37" value="(Статус - Брак)&lt;div&gt;Построить любую предусмотренную логику компании в случае брака. *возврат поставщику или любая другая логика*&amp;nbsp;&amp;nbsp;&lt;/div&gt;" style="rounded=1;whiteSpace=wrap;html=1;" parent="1" vertex="1">
          <mxGeometry x="510" y="-450" width="220" height="100" as="geometry" />
        </mxCell>
        <mxCell id="YheI6cxlKEy2oLV0Misl-42" style="edgeStyle=orthogonalEdgeStyle;rounded=0;orthogonalLoop=1;jettySize=auto;html=1;entryX=0.5;entryY=1;entryDx=0;entryDy=0;" parent="1" source="YheI6cxlKEy2oLV0Misl-41" edge="1" target="YheI6cxlKEy2oLV0Misl-44">
          <mxGeometry relative="1" as="geometry">
            <mxPoint x="-40" y="-190" as="targetPoint" />
          </mxGeometry>
        </mxCell>
        <mxCell id="YheI6cxlKEy2oLV0Misl-43" value="Отправить&lt;div&gt;в производство&lt;/div&gt;" style="edgeLabel;html=1;align=center;verticalAlign=middle;resizable=0;points=[];" parent="YheI6cxlKEy2oLV0Misl-42" vertex="1" connectable="0">
          <mxGeometry x="-0.1602" y="2" relative="1" as="geometry">
            <mxPoint as="offset" />
          </mxGeometry>
        </mxCell>
        <mxCell id="YheI6cxlKEy2oLV0Misl-41" value="(Статус - Подготовка отправки в производство)&lt;div&gt;Исполнитель еще раз проверяет все данные и отправляет в производство. Задача переходит в статус Производство и создается автоматически другая задача связанная с этой но уже в проекте производство&lt;/div&gt;" style="rounded=1;whiteSpace=wrap;html=1;" parent="1" vertex="1">
          <mxGeometry x="100" y="-260" width="240" height="140" as="geometry" />
        </mxCell>
        <mxCell id="YheI6cxlKEy2oLV0Misl-44" value="(Статус - производство)&lt;div&gt;Это конечный статус для этой задачи. Но автоматически идет создание задачи в проекте производство&lt;/div&gt;" style="rounded=1;whiteSpace=wrap;html=1;" parent="1" vertex="1">
          <mxGeometry x="100" y="-460" width="240" height="140" as="geometry" />
        </mxCell>
        <mxCell id="V66Wnj7TYJg09BsWGWKg-1" value="1. Бизнес-процесс (Производство)" style="text;html=1;align=center;verticalAlign=middle;whiteSpace=wrap;rounded=0;fontStyle=1" vertex="1" parent="1">
          <mxGeometry x="50" y="-20" width="260" height="30" as="geometry" />
        </mxCell>
        <mxCell id="V66Wnj7TYJg09BsWGWKg-2" value="В проекте *Производство* будет тоже несколько типов запросов" style="text;html=1;align=center;verticalAlign=middle;whiteSpace=wrap;rounded=0;" vertex="1" parent="1">
          <mxGeometry x="80" y="20" width="370" height="30" as="geometry" />
        </mxCell>
        <mxCell id="V66Wnj7TYJg09BsWGWKg-3" value="- Производство (на основании закупок)&lt;div&gt;- Производство (на другом основании)&lt;/div&gt;&lt;div&gt;- Проверка оборудования&lt;/div&gt;&lt;div&gt;- Отчет о кол-во произведенной продукции&lt;/div&gt;" style="text;html=1;align=center;verticalAlign=middle;whiteSpace=wrap;rounded=0;" vertex="1" parent="1">
          <mxGeometry x="50" y="60" width="370" height="30" as="geometry" />
        </mxCell>
        <mxCell id="V66Wnj7TYJg09BsWGWKg-4" value="Схема (производство (на основании закупок)" style="text;html=1;align=center;verticalAlign=middle;whiteSpace=wrap;rounded=0;" vertex="1" parent="1">
          <mxGeometry x="500" y="130" width="370" height="30" as="geometry" />
        </mxCell>
        <mxCell id="V66Wnj7TYJg09BsWGWKg-10" style="edgeStyle=orthogonalEdgeStyle;rounded=0;orthogonalLoop=1;jettySize=auto;html=1;" edge="1" parent="1" source="V66Wnj7TYJg09BsWGWKg-5">
          <mxGeometry relative="1" as="geometry">
            <mxPoint x="660" y="245" as="targetPoint" />
          </mxGeometry>
        </mxCell>
        <mxCell id="V66Wnj7TYJg09BsWGWKg-12" value="отправить на&lt;div&gt;производство&lt;/div&gt;" style="edgeLabel;html=1;align=center;verticalAlign=middle;resizable=0;points=[];" vertex="1" connectable="0" parent="V66Wnj7TYJg09BsWGWKg-10">
          <mxGeometry x="-0.1324" y="1" relative="1" as="geometry">
            <mxPoint as="offset" />
          </mxGeometry>
        </mxCell>
        <mxCell id="V66Wnj7TYJg09BsWGWKg-5" value="(Статус - открыто)&lt;div&gt;Ответственный исполнитель - принимает задачу на себя. Указывает необходимые дополнительно данные в задаче. И отправляет на производство&amp;nbsp;&amp;nbsp;&lt;/div&gt;" style="rounded=1;whiteSpace=wrap;html=1;" vertex="1" parent="1">
          <mxGeometry x="270" y="175" width="240" height="140" as="geometry" />
        </mxCell>
        <mxCell id="V66Wnj7TYJg09BsWGWKg-8" style="edgeStyle=orthogonalEdgeStyle;rounded=0;orthogonalLoop=1;jettySize=auto;html=1;entryX=0;entryY=0.5;entryDx=0;entryDy=0;" edge="1" parent="1" source="V66Wnj7TYJg09BsWGWKg-7" target="V66Wnj7TYJg09BsWGWKg-5">
          <mxGeometry relative="1" as="geometry" />
        </mxCell>
        <mxCell id="V66Wnj7TYJg09BsWGWKg-9" value="Создание" style="edgeLabel;html=1;align=center;verticalAlign=middle;resizable=0;points=[];" vertex="1" connectable="0" parent="V66Wnj7TYJg09BsWGWKg-8">
          <mxGeometry x="-0.0928" y="-4" relative="1" as="geometry">
            <mxPoint as="offset" />
          </mxGeometry>
        </mxCell>
        <mxCell id="V66Wnj7TYJg09BsWGWKg-7" value="Автоматическое создание задачи от закупки" style="text;html=1;align=center;verticalAlign=middle;whiteSpace=wrap;rounded=0;" vertex="1" parent="1">
          <mxGeometry x="30" y="230" width="150" height="30" as="geometry" />
        </mxCell>
        <mxCell id="V66Wnj7TYJg09BsWGWKg-13" style="edgeStyle=orthogonalEdgeStyle;rounded=0;orthogonalLoop=1;jettySize=auto;html=1;" edge="1" parent="1" source="V66Wnj7TYJg09BsWGWKg-11">
          <mxGeometry relative="1" as="geometry">
            <mxPoint x="990" y="244.99999999999977" as="targetPoint" />
          </mxGeometry>
        </mxCell>
        <mxCell id="V66Wnj7TYJg09BsWGWKg-11" value="(Статус - в производстве)&lt;div&gt;Ответственный исполнитель(или назначенное лицо) - видит назначенную на него задачу на производство и начинает производить продукцию&amp;nbsp;&amp;nbsp;&lt;/div&gt;" style="rounded=1;whiteSpace=wrap;html=1;" vertex="1" parent="1">
          <mxGeometry x="660" y="175" width="240" height="140" as="geometry" />
        </mxCell>
        <mxCell id="V66Wnj7TYJg09BsWGWKg-16" style="edgeStyle=orthogonalEdgeStyle;rounded=0;orthogonalLoop=1;jettySize=auto;html=1;entryX=0.5;entryY=0;entryDx=0;entryDy=0;" edge="1" parent="1" source="V66Wnj7TYJg09BsWGWKg-14" target="V66Wnj7TYJg09BsWGWKg-15">
          <mxGeometry relative="1" as="geometry" />
        </mxCell>
        <mxCell id="V66Wnj7TYJg09BsWGWKg-17" value="производство&lt;div&gt;&amp;nbsp;законченно&lt;/div&gt;" style="edgeLabel;html=1;align=center;verticalAlign=middle;resizable=0;points=[];" vertex="1" connectable="0" parent="V66Wnj7TYJg09BsWGWKg-16">
          <mxGeometry x="-0.1451" relative="1" as="geometry">
            <mxPoint as="offset" />
          </mxGeometry>
        </mxCell>
        <mxCell id="V66Wnj7TYJg09BsWGWKg-14" value="Тут дополнительная логика производства" style="rounded=1;whiteSpace=wrap;html=1;" vertex="1" parent="1">
          <mxGeometry x="990" y="175" width="240" height="140" as="geometry" />
        </mxCell>
        <mxCell id="V66Wnj7TYJg09BsWGWKg-18" style="edgeStyle=orthogonalEdgeStyle;rounded=0;orthogonalLoop=1;jettySize=auto;html=1;" edge="1" parent="1" source="V66Wnj7TYJg09BsWGWKg-15">
          <mxGeometry relative="1" as="geometry">
            <mxPoint x="830" y="480" as="targetPoint" />
          </mxGeometry>
        </mxCell>
        <mxCell id="V66Wnj7TYJg09BsWGWKg-19" value="отправить&amp;nbsp;&lt;div&gt;на&amp;nbsp;&lt;/div&gt;&lt;div&gt;контроль качества&lt;/div&gt;" style="edgeLabel;html=1;align=center;verticalAlign=middle;resizable=0;points=[];" vertex="1" connectable="0" parent="V66Wnj7TYJg09BsWGWKg-18">
          <mxGeometry x="-0.1056" y="-1" relative="1" as="geometry">
            <mxPoint as="offset" />
          </mxGeometry>
        </mxCell>
        <mxCell id="V66Wnj7TYJg09BsWGWKg-15" value="Статус (производство законченно)&lt;div&gt;Ответственный исполнитель - проверяет все данные из задачи и отправляет на контроль качества&amp;nbsp;&lt;/div&gt;" style="rounded=1;whiteSpace=wrap;html=1;" vertex="1" parent="1">
          <mxGeometry x="990" y="410" width="240" height="140" as="geometry" />
        </mxCell>
        <mxCell id="V66Wnj7TYJg09BsWGWKg-21" style="edgeStyle=orthogonalEdgeStyle;rounded=0;orthogonalLoop=1;jettySize=auto;html=1;" edge="1" parent="1" source="V66Wnj7TYJg09BsWGWKg-20">
          <mxGeometry relative="1" as="geometry">
            <mxPoint x="480" y="480" as="targetPoint" />
          </mxGeometry>
        </mxCell>
        <mxCell id="V66Wnj7TYJg09BsWGWKg-28" value="на проверку&lt;div&gt;технологу&lt;/div&gt;" style="edgeLabel;html=1;align=center;verticalAlign=middle;resizable=0;points=[];" vertex="1" connectable="0" parent="V66Wnj7TYJg09BsWGWKg-21">
          <mxGeometry x="-0.0603" y="3" relative="1" as="geometry">
            <mxPoint as="offset" />
          </mxGeometry>
        </mxCell>
        <mxCell id="V66Wnj7TYJg09BsWGWKg-24" style="edgeStyle=orthogonalEdgeStyle;rounded=0;orthogonalLoop=1;jettySize=auto;html=1;" edge="1" parent="1" source="V66Wnj7TYJg09BsWGWKg-20">
          <mxGeometry relative="1" as="geometry">
            <mxPoint x="707.0000000000002" y="610" as="targetPoint" />
          </mxGeometry>
        </mxCell>
        <mxCell id="V66Wnj7TYJg09BsWGWKg-26" value="Отправить&lt;div&gt;БРАК&lt;/div&gt;" style="edgeLabel;html=1;align=center;verticalAlign=middle;resizable=0;points=[];" vertex="1" connectable="0" parent="V66Wnj7TYJg09BsWGWKg-24">
          <mxGeometry x="-0.2507" y="3" relative="1" as="geometry">
            <mxPoint as="offset" />
          </mxGeometry>
        </mxCell>
        <mxCell id="V66Wnj7TYJg09BsWGWKg-20" value="Статус (на проверке - первичная)&lt;div&gt;Ответственный исполнитель - представитель отдела контроля качества.&lt;/div&gt;&lt;div&gt;Проверяет товар и отправляет на проверку технологу&lt;/div&gt;" style="rounded=1;whiteSpace=wrap;html=1;" vertex="1" parent="1">
          <mxGeometry x="587" y="410" width="240" height="140" as="geometry" />
        </mxCell>
        <mxCell id="V66Wnj7TYJg09BsWGWKg-25" value="Статус (производство законченно)&lt;div&gt;Логика в случае если БРАК&lt;/div&gt;" style="rounded=1;whiteSpace=wrap;html=1;" vertex="1" parent="1">
          <mxGeometry x="587" y="610" width="240" height="140" as="geometry" />
        </mxCell>
        <mxCell id="V66Wnj7TYJg09BsWGWKg-29" style="edgeStyle=orthogonalEdgeStyle;rounded=0;orthogonalLoop=1;jettySize=auto;html=1;" edge="1" parent="1" source="V66Wnj7TYJg09BsWGWKg-27">
          <mxGeometry relative="1" as="geometry">
            <mxPoint x="360" y="620" as="targetPoint" />
          </mxGeometry>
        </mxCell>
        <mxCell id="V66Wnj7TYJg09BsWGWKg-30" value="Проблема&amp;nbsp;&lt;div&gt;качества&lt;/div&gt;" style="edgeLabel;html=1;align=center;verticalAlign=middle;resizable=0;points=[];" vertex="1" connectable="0" parent="V66Wnj7TYJg09BsWGWKg-29">
          <mxGeometry x="-0.2235" y="3" relative="1" as="geometry">
            <mxPoint as="offset" />
          </mxGeometry>
        </mxCell>
        <mxCell id="V66Wnj7TYJg09BsWGWKg-33" style="edgeStyle=orthogonalEdgeStyle;rounded=0;orthogonalLoop=1;jettySize=auto;html=1;entryX=1;entryY=0.5;entryDx=0;entryDy=0;" edge="1" parent="1" source="V66Wnj7TYJg09BsWGWKg-27" target="V66Wnj7TYJg09BsWGWKg-32">
          <mxGeometry relative="1" as="geometry" />
        </mxCell>
        <mxCell id="V66Wnj7TYJg09BsWGWKg-34" value="Все&lt;div&gt;ОК&lt;/div&gt;" style="edgeLabel;html=1;align=center;verticalAlign=middle;resizable=0;points=[];" vertex="1" connectable="0" parent="V66Wnj7TYJg09BsWGWKg-33">
          <mxGeometry x="-0.0135" y="-3" relative="1" as="geometry">
            <mxPoint as="offset" />
          </mxGeometry>
        </mxCell>
        <mxCell id="V66Wnj7TYJg09BsWGWKg-27" value="Статус (на проверке - технолог)&lt;div&gt;Ответственный исполнитель(технолог)&lt;/div&gt;&lt;div&gt;- если не устраивает что то отправляет&amp;nbsp; на диспут Главному менеджеру. Если все ок отправляет далее&lt;/div&gt;" style="rounded=1;whiteSpace=wrap;html=1;" vertex="1" parent="1">
          <mxGeometry x="240" y="410" width="240" height="140" as="geometry" />
        </mxCell>
        <mxCell id="V66Wnj7TYJg09BsWGWKg-31" value="Статус (проблема качества)&amp;nbsp;&lt;div&gt;Задача переходит на Главного менеджера (и технолог с Г.менеджером) в этой задаче приходят к решению&lt;/div&gt;" style="rounded=1;whiteSpace=wrap;html=1;" vertex="1" parent="1">
          <mxGeometry x="240" y="620" width="240" height="140" as="geometry" />
        </mxCell>
        <mxCell id="V66Wnj7TYJg09BsWGWKg-32" value="Статус (КК - пройден)&lt;div&gt;Тут дополнительная логика при необходимости&lt;/div&gt;" style="rounded=1;whiteSpace=wrap;html=1;" vertex="1" parent="1">
          <mxGeometry x="-20" y="410" width="190" height="140" as="geometry" />
        </mxCell>
        <mxCell id="V66Wnj7TYJg09BsWGWKg-35" style="edgeStyle=orthogonalEdgeStyle;rounded=0;orthogonalLoop=1;jettySize=auto;html=1;exitX=0;exitY=0;exitDx=0;exitDy=0;entryX=0.815;entryY=1.05;entryDx=0;entryDy=0;entryPerimeter=0;" edge="1" parent="1" source="V66Wnj7TYJg09BsWGWKg-31" target="V66Wnj7TYJg09BsWGWKg-32">
          <mxGeometry relative="1" as="geometry" />
        </mxCell>
        <mxCell id="V66Wnj7TYJg09BsWGWKg-36" value="Проблема&lt;div&gt;решена&lt;/div&gt;" style="edgeLabel;html=1;align=center;verticalAlign=middle;resizable=0;points=[];" vertex="1" connectable="0" parent="V66Wnj7TYJg09BsWGWKg-35">
          <mxGeometry x="0.026" relative="1" as="geometry">
            <mxPoint as="offset" />
          </mxGeometry>
        </mxCell>
        <mxCell id="V66Wnj7TYJg09BsWGWKg-37" value="1. Бизнес-процесс (Логистика)" style="text;html=1;align=center;verticalAlign=middle;whiteSpace=wrap;rounded=0;fontStyle=1" vertex="1" parent="1">
          <mxGeometry x="10" y="790" width="260" height="30" as="geometry" />
        </mxCell>
        <mxCell id="V66Wnj7TYJg09BsWGWKg-38" value="В логистике будет несколько типов запросов&lt;div&gt;- Доставка продукции&lt;/div&gt;&lt;div&gt;- Проблема с доставкой&lt;/div&gt;" style="text;html=1;align=center;verticalAlign=middle;whiteSpace=wrap;rounded=0;" vertex="1" parent="1">
          <mxGeometry x="10" y="820" width="260" height="30" as="geometry" />
        </mxCell>
        <mxCell id="V66Wnj7TYJg09BsWGWKg-40" value="Схема (логистика(доставка продукции)" style="text;html=1;align=center;verticalAlign=middle;whiteSpace=wrap;rounded=0;" vertex="1" parent="1">
          <mxGeometry x="280" y="850" width="370" height="30" as="geometry" />
        </mxCell>
        <mxCell id="V66Wnj7TYJg09BsWGWKg-42" style="edgeStyle=orthogonalEdgeStyle;rounded=0;orthogonalLoop=1;jettySize=auto;html=1;" edge="1" parent="1" source="V66Wnj7TYJg09BsWGWKg-41">
          <mxGeometry relative="1" as="geometry">
            <mxPoint x="260" y="945" as="targetPoint" />
          </mxGeometry>
        </mxCell>
        <mxCell id="V66Wnj7TYJg09BsWGWKg-44" value="Создание" style="edgeLabel;html=1;align=center;verticalAlign=middle;resizable=0;points=[];" vertex="1" connectable="0" parent="V66Wnj7TYJg09BsWGWKg-42">
          <mxGeometry x="-0.2014" relative="1" as="geometry">
            <mxPoint as="offset" />
          </mxGeometry>
        </mxCell>
        <mxCell id="V66Wnj7TYJg09BsWGWKg-41" value="Логист создает задачу на доставку" style="text;html=1;align=center;verticalAlign=middle;whiteSpace=wrap;rounded=0;" vertex="1" parent="1">
          <mxGeometry x="14" y="930" width="156" height="30" as="geometry" />
        </mxCell>
        <mxCell id="V66Wnj7TYJg09BsWGWKg-45" style="edgeStyle=orthogonalEdgeStyle;rounded=0;orthogonalLoop=1;jettySize=auto;html=1;" edge="1" parent="1" source="V66Wnj7TYJg09BsWGWKg-43">
          <mxGeometry relative="1" as="geometry">
            <mxPoint x="710" y="945" as="targetPoint" />
          </mxGeometry>
        </mxCell>
        <mxCell id="V66Wnj7TYJg09BsWGWKg-46" value="Отправка&lt;div&gt;транспортом&lt;/div&gt;" style="edgeLabel;html=1;align=center;verticalAlign=middle;resizable=0;points=[];" vertex="1" connectable="0" parent="V66Wnj7TYJg09BsWGWKg-45">
          <mxGeometry x="-0.2147" y="-3" relative="1" as="geometry">
            <mxPoint as="offset" />
          </mxGeometry>
        </mxCell>
        <mxCell id="V66Wnj7TYJg09BsWGWKg-43" value="Статус - Открыто.&lt;div&gt;Автор указывает всю информацию. Какая продукция. Куда. Маршрут. Расходы итд&lt;/div&gt;&lt;div&gt;При создании задачи, может указать связь запросов с задачей из производства, чтобы было понятно из какой партии он доставляет&lt;/div&gt;" style="rounded=1;whiteSpace=wrap;html=1;direction=south;" vertex="1" parent="1">
          <mxGeometry x="260" y="890" width="270" height="110" as="geometry" />
        </mxCell>
        <mxCell id="V66Wnj7TYJg09BsWGWKg-49" style="edgeStyle=orthogonalEdgeStyle;rounded=0;orthogonalLoop=1;jettySize=auto;html=1;entryX=0;entryY=0.5;entryDx=0;entryDy=0;" edge="1" parent="1" source="V66Wnj7TYJg09BsWGWKg-47" target="V66Wnj7TYJg09BsWGWKg-48">
          <mxGeometry relative="1" as="geometry" />
        </mxCell>
        <mxCell id="V66Wnj7TYJg09BsWGWKg-50" value="Проблема" style="edgeLabel;html=1;align=center;verticalAlign=middle;resizable=0;points=[];" vertex="1" connectable="0" parent="V66Wnj7TYJg09BsWGWKg-49">
          <mxGeometry x="-0.3399" y="4" relative="1" as="geometry">
            <mxPoint y="1" as="offset" />
          </mxGeometry>
        </mxCell>
        <mxCell id="V66Wnj7TYJg09BsWGWKg-52" style="edgeStyle=orthogonalEdgeStyle;rounded=0;orthogonalLoop=1;jettySize=auto;html=1;entryX=0.5;entryY=1;entryDx=0;entryDy=0;" edge="1" parent="1" source="V66Wnj7TYJg09BsWGWKg-47" target="V66Wnj7TYJg09BsWGWKg-51">
          <mxGeometry relative="1" as="geometry" />
        </mxCell>
        <mxCell id="V66Wnj7TYJg09BsWGWKg-53" value="Груз доставлен" style="edgeLabel;html=1;align=center;verticalAlign=middle;resizable=0;points=[];" vertex="1" connectable="0" parent="V66Wnj7TYJg09BsWGWKg-52">
          <mxGeometry x="0.1116" y="-7" relative="1" as="geometry">
            <mxPoint as="offset" />
          </mxGeometry>
        </mxCell>
        <mxCell id="V66Wnj7TYJg09BsWGWKg-47" value="Статус - В пути.&lt;div&gt;В случае проблем логика для решения&amp;nbsp; или созданием диспута.&lt;/div&gt;&lt;div&gt;Если все ок -&amp;nbsp;&lt;/div&gt;" style="rounded=1;whiteSpace=wrap;html=1;direction=south;" vertex="1" parent="1">
          <mxGeometry x="710" y="890" width="270" height="110" as="geometry" />
        </mxCell>
        <mxCell id="V66Wnj7TYJg09BsWGWKg-54" style="edgeStyle=orthogonalEdgeStyle;rounded=0;orthogonalLoop=1;jettySize=auto;html=1;entryX=0.75;entryY=1;entryDx=0;entryDy=0;" edge="1" parent="1" source="V66Wnj7TYJg09BsWGWKg-48" target="V66Wnj7TYJg09BsWGWKg-51">
          <mxGeometry relative="1" as="geometry" />
        </mxCell>
        <mxCell id="V66Wnj7TYJg09BsWGWKg-55" value="Груз доставлен" style="edgeLabel;html=1;align=center;verticalAlign=middle;resizable=0;points=[];" vertex="1" connectable="0" parent="V66Wnj7TYJg09BsWGWKg-54">
          <mxGeometry x="0.075" relative="1" as="geometry">
            <mxPoint as="offset" />
          </mxGeometry>
        </mxCell>
        <mxCell id="V66Wnj7TYJg09BsWGWKg-48" value="Статус - Устранение проблемы.&lt;div&gt;Здесь логика устранения проблемы.&amp;nbsp;&lt;/div&gt;" style="rounded=1;whiteSpace=wrap;html=1;direction=south;" vertex="1" parent="1">
          <mxGeometry x="710" y="1059" width="270" height="110" as="geometry" />
        </mxCell>
        <mxCell id="V66Wnj7TYJg09BsWGWKg-56" style="edgeStyle=orthogonalEdgeStyle;rounded=0;orthogonalLoop=1;jettySize=auto;html=1;" edge="1" parent="1" source="V66Wnj7TYJg09BsWGWKg-51">
          <mxGeometry relative="1" as="geometry">
            <mxPoint x="1460" y="945" as="targetPoint" />
          </mxGeometry>
        </mxCell>
        <mxCell id="V66Wnj7TYJg09BsWGWKg-51" value="Статус - Продукция на точке.&lt;br&gt;&lt;div&gt;Далее принимающая сторона либо в Jira либо изначальный автор подтверждают что продукция прибыла на точку и с ней все впорядке.&lt;/div&gt;" style="rounded=1;whiteSpace=wrap;html=1;direction=south;" vertex="1" parent="1">
          <mxGeometry x="1080" y="890" width="270" height="110" as="geometry" />
        </mxCell>
        <mxCell id="V66Wnj7TYJg09BsWGWKg-57" value="Конечный статус - Товар реализован&lt;div&gt;Доп. логика если необходимо&lt;/div&gt;" style="rounded=1;whiteSpace=wrap;html=1;direction=south;" vertex="1" parent="1">
          <mxGeometry x="1460" y="890" width="270" height="110" as="geometry" />
        </mxCell>
        <mxCell id="V66Wnj7TYJg09BsWGWKg-58" value="У отдела продаж большое количество аналитических мониторингов и экранов для отслеживания. По продукции. По сырью. И по любым другим необходимым данным" style="text;html=1;align=center;verticalAlign=middle;whiteSpace=wrap;rounded=0;fillColor=none;fontStyle=1" vertex="1" parent="1">
          <mxGeometry x="50" y="1210" width="360" height="30" as="geometry" />
        </mxCell>
        <mxCell id="V66Wnj7TYJg09BsWGWKg-59" value="Типы запроса будут представлены немного других видов&lt;div&gt;- Проблемная точка (указания данных и проблем в задаче и после перенаправление на необходимый отдел до решения)&lt;/div&gt;&lt;div&gt;- Организация тренинга (отправляется всем по эл.почте с подтверждением)&lt;/div&gt;&lt;div&gt;- Предложение улучшения продукта (задача с перенаправлением на необходимый отдел)&lt;/div&gt;" style="text;html=1;align=center;verticalAlign=middle;whiteSpace=wrap;rounded=0;" vertex="1" parent="1">
          <mxGeometry x="30" y="1290" width="420" height="30" as="geometry" />
        </mxCell>
        <mxCell id="V66Wnj7TYJg09BsWGWKg-61" value="Отдел маркетинга так же имеет доступ к необходимым данных для аналитики включая мониторинг всех задач" style="text;html=1;align=center;verticalAlign=middle;whiteSpace=wrap;rounded=0;fillColor=none;fontStyle=1" vertex="1" parent="1">
          <mxGeometry x="50" y="1450" width="360" height="30" as="geometry" />
        </mxCell>
        <mxCell id="V66Wnj7TYJg09BsWGWKg-62" value="Типы запроса:&lt;div&gt;- Разработка рекламной компании (полноценный бизнес процесс внутри проекта с привлечением необходимых специалистов)&lt;/div&gt;&lt;div&gt;- Обратная связь (уникальный бизнес процесс по которому клиенты могут через какую либо форму создать задачу для отработки отделом маркетинга) (тут необходим полноценный код scriptruner и работа с json данными)&lt;/div&gt;&lt;div&gt;-&lt;/div&gt;" style="text;html=1;align=center;verticalAlign=middle;whiteSpace=wrap;rounded=0;" vertex="1" parent="1">
          <mxGeometry x="30" y="1540" width="420" height="30" as="geometry" />
        </mxCell>
      </root>
    </mxGraphModel>
  </diagram>
</mxfile>
